<svg width="520" height="200" viewBox="0 0 520 200" fill="none" xmlns="http://www.w3.org/2000/svg">
<rect width="520" height="200" fill="#B3ECFF"/>
<path d="M151.929 114.632C153.017 114.632 154.201 114.536 155.481 114.344C156.825 114.088 157.817 113.768 158.457 113.384V105.704L151.545 106.28C149.753 106.408 148.281 106.792 147.129 107.432C145.977 108.072 145.401 109.032 145.401 110.312C145.401 111.592 145.881 112.648 146.841 113.48C147.865 114.248 149.561 114.632 151.929 114.632ZM151.161 76.904C154.617 76.904 157.753 77.256 160.569 77.96C163.449 78.664 165.881 79.752 167.865 81.224C169.913 82.632 171.481 84.456 172.569 86.696C173.657 88.872 174.201 91.464 174.201 94.472V115.976C174.201 117.64 173.721 119.016 172.761 120.104C171.865 121.128 170.777 122.024 169.497 122.792C165.337 125.288 159.481 126.536 151.929 126.536C148.537 126.536 145.465 126.216 142.713 125.576C140.025 124.936 137.689 123.976 135.705 122.696C133.785 121.416 132.281 119.784 131.193 117.8C130.169 115.816 129.657 113.512 129.657 110.888C129.657 106.472 130.969 103.08 133.593 100.712C136.217 98.344 140.281 96.872 145.785 96.296L158.361 94.952V94.28C158.361 92.424 157.529 91.112 155.865 90.344C154.265 89.512 151.929 89.096 148.857 89.096C146.425 89.096 144.057 89.352 141.753 89.864C139.449 90.376 137.369 91.016 135.513 91.784C134.681 91.208 133.977 90.344 133.401 89.192C132.825 87.976 132.537 86.728 132.537 85.448C132.537 83.784 132.921 82.472 133.689 81.512C134.521 80.488 135.769 79.624 137.433 78.92C139.289 78.216 141.465 77.704 143.961 77.384C146.521 77.064 148.921 76.904 151.161 76.904Z" fill="#0186B3"/>
<path d="M232.467 101.672C232.467 105.64 231.859 109.192 230.643 112.328C229.427 115.4 227.699 117.992 225.459 120.104C223.283 122.216 220.659 123.816 217.587 124.904C214.515 125.992 211.091 126.536 207.315 126.536C203.539 126.536 200.115 125.96 197.043 124.808C193.971 123.656 191.315 122.024 189.075 119.912C186.899 117.736 185.203 115.112 183.987 112.04C182.771 108.968 182.163 105.512 182.163 101.672C182.163 97.896 182.771 94.472 183.987 91.4C185.203 88.328 186.899 85.736 189.075 83.624C191.315 81.448 193.971 79.784 197.043 78.632C200.115 77.48 203.539 76.904 207.315 76.904C211.091 76.904 214.515 77.512 217.587 78.728C220.659 79.88 223.283 81.544 225.459 83.72C227.699 85.832 229.427 88.424 230.643 91.496C231.859 94.568 232.467 97.96 232.467 101.672ZM198.867 101.672C198.867 105.576 199.603 108.584 201.075 110.696C202.611 112.744 204.723 113.768 207.411 113.768C210.099 113.768 212.147 112.712 213.555 110.6C215.027 108.488 215.763 105.512 215.763 101.672C215.763 97.832 215.027 94.888 213.555 92.84C212.083 90.728 210.003 89.672 207.315 89.672C204.627 89.672 202.547 90.728 201.075 92.84C199.603 94.888 198.867 97.832 198.867 101.672Z" fill="#0186B3"/>
<path d="M266.733 89.768C265.133 89.768 263.597 90.024 262.125 90.536C260.717 91.048 259.469 91.816 258.381 92.84C257.357 93.8 256.525 95.016 255.885 96.488C255.245 97.96 254.925 99.688 254.925 101.672C254.925 105.64 256.045 108.616 258.285 110.6C260.589 112.584 263.373 113.576 266.637 113.576C268.557 113.576 270.221 113.352 271.629 112.904C273.037 112.456 274.285 111.976 275.373 111.464C276.653 112.36 277.613 113.352 278.253 114.44C278.893 115.464 279.213 116.712 279.213 118.184C279.213 120.808 277.965 122.856 275.469 124.328C272.973 125.736 269.517 126.44 265.101 126.44C261.069 126.44 257.421 125.864 254.157 124.712C250.893 123.496 248.077 121.832 245.709 119.72C243.405 117.544 241.613 114.952 240.333 111.944C239.053 108.936 238.413 105.608 238.413 101.96C238.413 97.736 239.085 94.056 240.429 90.92C241.837 87.72 243.725 85.096 246.093 83.048C248.461 81 251.181 79.464 254.253 78.44C257.389 77.416 260.685 76.904 264.141 76.904C268.749 76.904 272.302 77.736 274.798 79.4C277.294 81.064 278.541 83.208 278.541 85.832C278.541 87.048 278.253 88.2 277.677 89.288C277.101 90.312 276.429 91.208 275.661 91.976C274.573 91.464 273.261 90.984 271.725 90.536C270.189 90.024 268.525 89.768 266.733 89.768Z" fill="#0186B3"/>
<path d="M304.006 124.904C303.302 125.032 302.246 125.192 300.838 125.384C299.494 125.64 298.118 125.768 296.71 125.768C295.302 125.768 294.022 125.672 292.87 125.48C291.782 125.288 290.854 124.904 290.086 124.328C289.318 123.752 288.71 122.984 288.262 122.024C287.878 121 287.686 119.688 287.686 118.088V62.408C288.39 62.28 289.414 62.12 290.758 61.928C292.166 61.672 293.574 61.544 294.982 61.544C296.39 61.544 297.638 61.64 298.726 61.832C299.878 62.024 300.838 62.408 301.606 62.984C302.374 63.56 302.95 64.36 303.334 65.384C303.782 66.344 304.006 67.624 304.006 69.224V124.904Z" fill="#0186B3"/>
<path d="M313.92 65.384C313.92 62.952 314.72 60.904 316.32 59.24C317.984 57.576 320.16 56.744 322.848 56.744C325.536 56.744 327.68 57.576 329.28 59.24C330.944 60.904 331.776 62.952 331.776 65.384C331.776 67.816 330.944 69.864 329.28 71.528C327.68 73.192 325.536 74.024 322.848 74.024C320.16 74.024 317.984 73.192 316.32 71.528C314.72 69.864 313.92 67.816 313.92 65.384ZM331.008 124.904C330.304 125.032 329.248 125.192 327.84 125.384C326.497 125.64 325.12 125.768 323.712 125.768C322.304 125.768 321.024 125.672 319.872 125.48C318.784 125.288 317.856 124.904 317.088 124.328C316.32 123.752 315.712 122.984 315.264 122.024C314.88 121 314.688 119.688 314.688 118.088V79.016C315.392 78.888 316.416 78.728 317.76 78.536C319.168 78.28 320.576 78.152 321.984 78.152C323.392 78.152 324.641 78.248 325.729 78.44C326.881 78.632 327.84 79.016 328.608 79.592C329.376 80.168 329.952 80.968 330.336 81.992C330.784 82.952 331.008 84.232 331.008 85.832V124.904Z" fill="#0186B3"/>
<path d="M341.59 62.504C342.23 62.312 343.254 62.12 344.662 61.928C346.07 61.672 347.51 61.544 348.982 61.544C350.39 61.544 351.638 61.64 352.726 61.832C353.878 62.024 354.838 62.408 355.606 62.984C356.374 63.56 356.95 64.36 357.334 65.384C357.718 66.344 357.91 67.624 357.91 69.224V78.632C359.51 77.992 361.014 77.544 362.422 77.288C363.894 77.032 365.494 76.904 367.222 76.904C370.294 76.904 373.206 77.448 375.958 78.536C378.71 79.624 381.142 81.224 383.254 83.336C385.366 85.384 387.03 87.944 388.246 91.016C389.462 94.088 390.07 97.64 390.07 101.672C390.07 105.832 389.43 109.48 388.15 112.616C386.934 115.688 385.206 118.248 382.966 120.296C380.726 122.344 377.974 123.912 374.71 125C371.51 126.024 367.958 126.536 364.054 126.536C359.83 126.536 356.246 126.024 353.302 125C350.358 124.04 347.862 122.824 345.814 121.352C342.998 119.368 341.59 116.808 341.59 113.672V62.504ZM364.054 113.672C366.998 113.672 369.27 112.68 370.87 110.696C372.534 108.648 373.366 105.64 373.366 101.672C373.366 97.64 372.534 94.632 370.87 92.648C369.206 90.664 366.966 89.672 364.15 89.672C362.87 89.672 361.75 89.8 360.79 90.056C359.894 90.312 358.902 90.696 357.814 91.208V112.136C358.518 112.584 359.35 112.968 360.31 113.288C361.334 113.544 362.582 113.672 364.054 113.672Z" fill="#0186B3"/>
<rect x="0.5" y="0.5" width="519" height="199" stroke="black" stroke-opacity="0.5"/>
</svg>
